# xmcd
# 
# Track frame offsets:
#     150
#     16071
#     32531
# 
# Disc length: 641
# 
# Revision: 2
# Processed by: cddbd v1.5.2PL0 Copyright (c) Steve Scherf et al.
# Submitted via: fre:ac v1.0.17
# 
DISCID=13027f03
DTITLE=Fiestar 피에스타 - Vista (1st Single Album)
DYEAR=2012
DGENRE=K-Pop
TTITLE0=Vista
TTITLE1=Wicked feat. Tiger JK
TTITLE2=달빗바다 (Fiestar Version)
EXTD=
EXTT0=
EXTT1=
EXTT2=
PLAYORDER=
